<svg width="1439" height="222" viewBox="0 0 1439 222" fill="none" xmlns="http://www.w3.org/2000/svg">
<g clip-path="url(#clip0)">
<path d="M1440 66.6L1413.3 81.3769C1386.7 96.4313 1333 125.569 1280 133.2C1226.7 140.831 1173 125.569 1120 111C1066.7 96.4313 1013 81.1688 960 66.6C906.7 52.0313 853 36.7688 800 36.9769C746.7 36.7688 693 52.0313 640 81.3769C586.7 111 533 155.4 480 147.977C426.7 140.831 373 81.1688 320 81.3769C266.7 81.1688 213 140.831 160 144.3C106.7 147.769 53 96.4313 27 70.2769L0 44.4V222H26.7C53.2999 222 107 222 160 222C213.3 222 267 222 320 222C373.3 222 427 222 480 222C533.3 222 587 222 640 222C693.3 222 747 222 800 222C853.3 222 907 222 960 222C1013.3 222 1067 222 1120 222C1173.3 222 1227 222 1280 222C1333.3 222 1387 222 1413 222H1440V66.6Z" fill="#003049"/>
</g>
<defs>
<clipPath id="clip0">
<rect width="1440" height="222" fill="white" transform="translate(1440 222) rotate(-180)"/>
</clipPath>
</defs>
</svg>
