<svg width="1440" height="200" viewBox="0 0 1440 200" fill="none" xmlns="http://www.w3.org/2000/svg">
<g clip-path="url(#clip0)">
<path d="M1440 60L1413.3 73.3125C1386.7 86.875 1333 113.125 1280 120C1226.7 126.875 1173 113.125 1120 100C1066.7 86.875 1013 73.125 960 60C906.7 46.875 853 33.125 800 33.3125C746.7 33.125 693 46.875 640 73.3125C586.7 100 533 140 480 133.313C426.7 126.875 373 73.125 320 73.3125C266.7 73.125 213 126.875 160 130C106.7 133.125 53 86.875 27 63.3125L0 40V200H26.7C53.3 200 107 200 160 200C213.3 200 267 200 320 200C373.3 200 427 200 480 200C533.3 200 587 200 640 200C693.3 200 747 200 800 200C853.3 200 907 200 960 200C1013.3 200 1067 200 1120 200C1173.3 200 1227 200 1280 200C1333.3 200 1387 200 1413 200H1440V60Z" fill="#003049"/>
</g>
<defs>
<clipPath id="clip0">
<rect width="1440" height="200" fill="white" transform="translate(1440 200) rotate(-180)"/>
</clipPath>
</defs>
</svg>
