<svg width="1439" height="300" viewBox="0 0 1439 300" fill="none" xmlns="http://www.w3.org/2000/svg">
<g clip-path="url(#clip0)">
<path d="M1440 90L1413.3 109.969C1386.7 130.313 1333 169.688 1280 180C1226.7 190.313 1173 169.688 1120 150C1066.7 130.313 1013 109.688 960 90C906.7 70.3125 853 49.6875 800 49.9688C746.7 49.6875 693 70.3125 640 109.969C586.7 150 533 210 480 199.969C426.7 190.313 373 109.688 320 109.969C266.7 109.688 213 190.313 160 195C106.7 199.688 53 130.313 27 94.9688L0 60V300H26.7C53.3 300 107 300 160 300C213.3 300 267 300 320 300C373.3 300 427 300 480 300C533.3 300 587 300 640 300C693.3 300 747 300 800 300C853.3 300 907 300 960 300C1013.3 300 1067 300 1120 300C1173.3 300 1227 300 1280 300C1333.3 300 1387 300 1413 300H1440V90Z" fill="#003049"/>
</g>
<defs>
<clipPath id="clip0">
<rect width="1440" height="300" fill="white" transform="translate(1440 300) rotate(-180)"/>
</clipPath>
</defs>
</svg>
